<svg xmlns="http://www.w3.org/2000/svg" viewBox="0 0 1148.91 308.23"><defs><style>.cls-1,.cls-2,.cls-3{fill:#fff;}.cls-2{font-size:213.78px;}.cls-2,.cls-3{font-family:Bariol-Regular, Bariol;}.cls-3{font-size:83.2px;}</style></defs><g id="Capa_2" data-name="Capa 2"><g id="Layer_1" data-name="Layer 1"><path class="cls-1" d="M303.28,127.52l.39.22-.17,0-.56.67c-4.58,5.52-15.63,11.5-30.91,19.79-30.84,16.71-77.43,42-123.95,91.85C127.92,261.71,106,271,82.82,267.63c1.34.08,2.68.16,4,.16,23.2,0,44.67-12.91,64-38.5,63.45-84.17,129-97.12,150.55-101.38Z"/><path class="cls-1" d="M303.48,134.47c-6.7,17-33.1,34.3-66.48,56.13-26.58,17.39-56.7,37.1-87.84,63.06-20.39,17-42.08,23.32-64.59,18.89a70.07,70.07,0,0,0,7.49.42c21.07,0,41-10,59.43-29.71,46-49.34,92.19-74.37,122.75-90.94C287.41,145.19,297.51,139.71,303.48,134.47Z"/><path class="cls-1" d="M98,278.53c18.78,0,37.19-7.19,54.11-21.3,30.93-25.79,60.94-45.41,87.41-62.73,29.24-19.13,51.82-33.92,62.87-48.84-16.33,39-75.82,75.21-144.16,116.74l-8,4.84c-20.72,12.61-43.14,16-65.27,10.1A75.47,75.47,0,0,0,98,278.53Z"/><path class="cls-1" d="M301.12,122.18a11,11,0,0,1,1,.83l-1.66.33c-22,4.34-88.85,17.56-153.37,103.15C127.39,252.6,105.55,264.84,82,262.93h.41c25.12,0,47.85-16,67.64-47.59,45.2-72.18,90.79-91.19,113.94-96.11C282.37,115.35,295.22,118.2,301.12,122.18Z"/><path class="cls-1" d="M106.13,284.86c15.92,0,31.68-4.58,46.59-13.65l7.95-4.83c65.91-40.06,123.7-75.19,143.53-113.53-11.89,47.82-66.8,94.06-152.69,128a93.82,93.82,0,0,1-65.82,1.49A85.68,85.68,0,0,0,106.13,284.86Z"/><path class="cls-1" d="M298.2,115.59c-7.72-2.87-19.74-4.18-35.19-.9-23.87,5.06-70.81,24.56-116.92,98.19-19.35,30.91-41.36,46.15-65.53,45.36,26.07-.93,49.17-20,68.71-56.81,42.08-79.36,84.66-95.64,106.29-98.28C275.4,100.72,290.3,107.75,298.2,115.59Z"/><path class="cls-1" d="M116.67,292.24a99.07,99.07,0,0,0,36.55-7.07C233.38,253.5,287.07,210.94,304.83,166c-12.49,60.78-73.49,113.36-152,128.5-19.88,3.83-42.07,1.74-63.24-6.07A99.55,99.55,0,0,0,116.67,292.24Z"/><path class="cls-1" d="M255,98.53c-52.5,6.41-91.36,65.85-109.84,100.71-18.75,35.36-40.62,53.63-65,54.4.4,0,.79-.06,1.19-.11,26-3.06,48.59-25.27,67.15-66C166,149.11,202.3,85.45,250.75,85.45q1.26,0,2.52.06c16.76.76,30.61,9.41,40.23,20.46C283.05,99.51,269.41,96.76,255,98.53Z"/><path class="cls-1" d="M87.06,292.85a119.34,119.34,0,0,0,66.61,6.22C228.51,284.65,287.81,236.79,306,179.74c-12.25,72.82-75.69,128.48-151.93,128.49A153.78,153.78,0,0,1,87.06,292.85Z"/><path class="cls-1" d="M22.2,224.61c10.77,12.83,34.62,27.13,58.59,24.3,24.26-2.87,45.61-24.17,63.44-63.32,18.3-40.14,56.92-107.1,109.25-104.73,20.86,1,37.5,13.13,47.82,27.56A151.78,151.78,0,0,0,289.8,81,154.06,154.06,0,0,0,154.12,0C69.14,0,0,69.14,0,154.11a154.37,154.37,0,0,0,5.42,40.68S8.34,208.09,22.2,224.61Z"/><text class="cls-2" transform="translate(369.75 190.31)">CAELUM</text><text class="cls-3" transform="translate(376.4 279.45)">biofarmacéutica</text></g></g></svg>