<svg xmlns="http://www.w3.org/2000/svg" viewBox="0 0 1127.8 308.23">
  <defs>
    <style>
      .b1c0a0da-7b15-45aa-8d32-bc6ba4596f7a {
        fill: #fff;
      }
    </style>
  </defs>
  <title>Recurso 1</title>
  <g id="fd07a142-d67c-4a80-ae4f-a64f3a53b99d" data-name="Capa 2">
    <g id="b40a2375-4b7c-48b3-af88-652f4c7ec5ea" data-name="Layer 1">
      <g>
        <path class="b1c0a0da-7b15-45aa-8d32-bc6ba4596f7a" d="M303.28,127.52l.39.22-.17,0-.56.67c-4.58,5.52-15.63,11.5-30.91,19.79-30.84,16.71-77.43,42-123.95,91.85C127.92,261.71,106,271,82.82,267.63c1.34.08,2.68.16,4,.16,23.2,0,44.67-12.91,64-38.5,63.45-84.17,129-97.12,150.55-101.38Z"/>
        <path class="b1c0a0da-7b15-45aa-8d32-bc6ba4596f7a" d="M303.48,134.47c-6.7,17-33.1,34.3-66.48,56.13-26.58,17.39-56.7,37.1-87.84,63.06-20.39,17-42.08,23.32-64.59,18.89a70.07,70.07,0,0,0,7.49.42c21.07,0,41-10,59.43-29.71,46-49.34,92.19-74.37,122.75-90.94C287.41,145.19,297.51,139.71,303.48,134.47Z"/>
        <path class="b1c0a0da-7b15-45aa-8d32-bc6ba4596f7a" d="M98,278.53c18.78,0,37.19-7.19,54.11-21.3,30.93-25.79,60.94-45.41,87.41-62.73,29.24-19.13,51.82-33.92,62.87-48.84-16.33,39-75.82,75.21-144.16,116.74l-8,4.84c-20.72,12.61-43.14,16-65.27,10.1A75.47,75.47,0,0,0,98,278.53Z"/>
        <path class="b1c0a0da-7b15-45aa-8d32-bc6ba4596f7a" d="M301.12,122.18a11,11,0,0,1,1,.83l-1.66.33c-22,4.34-88.85,17.56-153.37,103.15C127.39,252.6,105.55,264.84,82,262.93h.41c25.12,0,47.85-16,67.64-47.59,45.2-72.18,90.79-91.19,113.94-96.11C282.37,115.35,295.22,118.2,301.12,122.18Z"/>
        <path class="b1c0a0da-7b15-45aa-8d32-bc6ba4596f7a" d="M106.13,284.86c15.92,0,31.68-4.58,46.59-13.65l7.95-4.83c65.91-40.06,123.7-75.19,143.53-113.53-11.89,47.82-66.8,94.06-152.69,128a93.82,93.82,0,0,1-65.82,1.49A85.68,85.68,0,0,0,106.13,284.86Z"/>
        <path class="b1c0a0da-7b15-45aa-8d32-bc6ba4596f7a" d="M298.2,115.59c-7.72-2.87-19.74-4.18-35.19-.9-23.87,5.06-70.81,24.56-116.92,98.19-19.35,30.91-41.36,46.15-65.53,45.36,26.07-.93,49.17-20,68.71-56.81,42.08-79.36,84.66-95.64,106.29-98.28C275.4,100.72,290.3,107.75,298.2,115.59Z"/>
        <path class="b1c0a0da-7b15-45aa-8d32-bc6ba4596f7a" d="M116.67,292.24a99.07,99.07,0,0,0,36.55-7.07C233.38,253.5,287.07,210.94,304.83,166c-12.49,60.78-73.49,113.36-152,128.5-19.88,3.83-42.07,1.74-63.24-6.07A99.55,99.55,0,0,0,116.67,292.24Z"/>
        <path class="b1c0a0da-7b15-45aa-8d32-bc6ba4596f7a" d="M255,98.53c-52.5,6.41-91.36,65.85-109.84,100.71-18.75,35.36-40.62,53.63-65,54.4.4,0,.79-.06,1.19-.11,26-3.06,48.59-25.27,67.15-66C166,149.11,202.3,85.45,250.75,85.45q1.26,0,2.52.06c16.76.76,30.61,9.41,40.23,20.46C283.05,99.51,269.41,96.76,255,98.53Z"/>
        <path class="b1c0a0da-7b15-45aa-8d32-bc6ba4596f7a" d="M87.06,292.85a119.34,119.34,0,0,0,66.61,6.22C228.51,284.65,287.81,236.79,306,179.74c-12.25,72.82-75.69,128.48-151.93,128.49A153.78,153.78,0,0,1,87.06,292.85Z"/>
        <path class="b1c0a0da-7b15-45aa-8d32-bc6ba4596f7a" d="M22.2,224.61c10.77,12.83,34.62,27.13,58.59,24.3,24.26-2.87,45.61-24.17,63.44-63.32,18.3-40.14,56.92-107.1,109.25-104.73,20.86,1,37.5,13.13,47.82,27.56A151.78,151.78,0,0,0,289.8,81,154.06,154.06,0,0,0,154.12,0C69.14,0,0,69.14,0,154.11a154.37,154.37,0,0,0,5.42,40.68S8.34,208.09,22.2,224.61Z"/>
        <g>
          <g>
            <path class="b1c0a0da-7b15-45aa-8d32-bc6ba4596f7a" d="M379.14,118.5q0-37.27,17.49-56.16t49.22-18.9a63.71,63.71,0,0,1,27.82,6.06A52.32,52.32,0,0,1,494,66.09a7.73,7.73,0,0,1,1.46,4.49,6.75,6.75,0,0,1-1.93,4.91,6.51,6.51,0,0,1-4.85,2A7,7,0,0,1,483,74.65a42.68,42.68,0,0,0-15.66-12.94,47,47,0,0,0-21.5-5q-25.05,0-38.42,15.45T394.07,118.5q0,32.35,13.1,47t38.68,14.61A51.41,51.41,0,0,0,467,175.65a38,38,0,0,0,16-13.1,7,7,0,0,1,10.49-.84,6.77,6.77,0,0,1,1.93,4.91,7.23,7.23,0,0,1-1.25,4.07q-7,10.23-20.3,16.44a65.55,65.55,0,0,1-28,6.21q-32.16,0-49.43-18.27T379.14,118.5Z"/>
            <path class="b1c0a0da-7b15-45aa-8d32-bc6ba4596f7a" d="M509.31,184.78a7.17,7.17,0,0,1,.63-3.23l52.19-132c1.33-3.27,3.62-4.9,6.89-4.9s5.67,1.63,7,4.9l52.19,132a8.56,8.56,0,0,1,.63,3.23,7,7,0,0,1-2.09,5.12,7.34,7.34,0,0,1-5.43,2.08,6.83,6.83,0,0,1-7-4.9l-15.45-39.35H539.27l-15.55,39.14q-1.87,5.12-7.1,5.11a7,7,0,0,1-5.17-2.14A6.93,6.93,0,0,1,509.31,184.78Zm34.45-50.31h50.63L569,69.12Z"/>
            <path class="b1c0a0da-7b15-45aa-8d32-bc6ba4596f7a" d="M651.7,183V53.67a7.14,7.14,0,0,1,7.2-7.2h68.69a6.59,6.59,0,0,1,6.57,6.58,6.47,6.47,0,0,1-1.93,4.69,6.22,6.22,0,0,1-4.64,2H666.21v51.46h47.08a6.26,6.26,0,0,1,4.64,2,6.51,6.51,0,0,1,1.93,4.7,6.59,6.59,0,0,1-6.57,6.58H666.21v52.61h63.67a6.76,6.76,0,0,1,6.68,6.68,6.23,6.23,0,0,1-2,4.64,6.5,6.5,0,0,1-4.7,1.93h-71a6.84,6.84,0,0,1-5.11-2.14A7.07,7.07,0,0,1,651.7,183Z"/>
            <path class="b1c0a0da-7b15-45aa-8d32-bc6ba4596f7a" d="M762.35,183V52a7.12,7.12,0,0,1,2.08-5.16,6.88,6.88,0,0,1,5.12-2.14,7.31,7.31,0,0,1,7.31,7.3V176.64h58.56a6.74,6.74,0,0,1,4.9,1.93,6.51,6.51,0,0,1,2,4.85,6.78,6.78,0,0,1-6.89,6.89H769.55a6.88,6.88,0,0,1-5.12-2.14A7.1,7.1,0,0,1,762.35,183Z"/>
            <path class="b1c0a0da-7b15-45aa-8d32-bc6ba4596f7a" d="M865.58,146.47V52a7.13,7.13,0,0,1,2.09-5.16,6.86,6.86,0,0,1,5.12-2.14,7.31,7.31,0,0,1,7.3,7.3v94.47a54.65,54.65,0,0,0,.84,10,30.23,30.23,0,0,0,3.24,8.93,23.45,23.45,0,0,0,6.26,7.46,30.31,30.31,0,0,0,10.33,4.91,54.25,54.25,0,0,0,15,1.88,53.06,53.06,0,0,0,14.93-1.88A30.38,30.38,0,0,0,941,172.88a23.72,23.72,0,0,0,6.26-7.46,30.51,30.51,0,0,0,3.24-8.93,54.65,54.65,0,0,0,.84-10V52a7.29,7.29,0,0,1,7.3-7.3,6.88,6.88,0,0,1,5.12,2.14A7.12,7.12,0,0,1,965.79,52v94.47q0,46.88-50,46.87a73,73,0,0,1-20.66-2.66,42.75,42.75,0,0,1-14.46-7,35.15,35.15,0,0,1-9-10.6,43.87,43.87,0,0,1-4.8-12.68A70,70,0,0,1,865.58,146.47Z"/>
            <path class="b1c0a0da-7b15-45aa-8d32-bc6ba4596f7a" d="M996.69,185V51.79a7.12,7.12,0,0,1,7.1-7.09,6.76,6.76,0,0,1,6.37,4.07l51.78,96.87,52-96.87c1.53-2.72,3.65-4.07,6.37-4.07a7.12,7.12,0,0,1,7.1,7.09V185a6.68,6.68,0,0,1-2.09,5,6.93,6.93,0,0,1-5,2,6.95,6.95,0,0,1-7-7V79.77l-45,83.2a6.76,6.76,0,0,1-6.36,4.07,6.64,6.64,0,0,1-6.37-4.07l-44.68-83.2V185a6.68,6.68,0,0,1-2.09,5,7.2,7.2,0,0,1-10,0A6.68,6.68,0,0,1,996.69,185Z"/>
          </g>
          <g>
            <path class="b1c0a0da-7b15-45aa-8d32-bc6ba4596f7a" d="M381.81,264.13V222.86a2.5,2.5,0,0,1,.77-1.89,2.62,2.62,0,0,1,1.91-.75,2.56,2.56,0,0,1,2.64,2.64v23.07a12.79,12.79,0,0,1,4.59-3.81,14.18,14.18,0,0,1,6.74-1.59q16.69,0,16.7,20,0,10-4.41,15t-12.61,5q-7.35,0-11.84-4.23T381.81,264.13Zm5.32,0c0,3.82,1,6.71,3,8.66a11,11,0,0,0,8,2.92q11.7,0,11.7-15.23,0-7.61-3-11.38t-8.71-3.77a11.49,11.49,0,0,0-4.15.75,9.89,9.89,0,0,0-3.14,1.83,19.29,19.29,0,0,0-2.1,2.17,11.26,11.26,0,0,0-1.26,1.83l-.36.77Z"/>
            <path class="b1c0a0da-7b15-45aa-8d32-bc6ba4596f7a" d="M439.56,230c0-2.19,1.05-3.29,3.17-3.29s3.12,1.1,3.12,3.29a3.23,3.23,0,0,1-.81,2.34,3.09,3.09,0,0,1-2.31.83,2.89,2.89,0,0,1-3.17-3.17Zm.48,47.45v-33.8a2.51,2.51,0,0,1,.78-1.89,2.62,2.62,0,0,1,1.91-.75,2.59,2.59,0,0,1,1.89.75,2.56,2.56,0,0,1,.75,1.89v33.8a2.56,2.56,0,0,1-.75,1.89,2.59,2.59,0,0,1-1.89.75,2.62,2.62,0,0,1-1.91-.75A2.51,2.51,0,0,1,440,277.46Z"/>
            <path class="b1c0a0da-7b15-45aa-8d32-bc6ba4596f7a" d="M475,275.51q-4.62-5-4.62-15t4.6-15q4.59-5,12.87-5t12.9,5q4.57,5,4.57,15t-4.57,15q-4.57,5-12.9,5T475,275.51Zm.79-15q0,15.22,12.06,15.23t12.07-15.23q0-15.15-12.07-15.15T475.74,260.48Z"/>
            <path class="b1c0a0da-7b15-45aa-8d32-bc6ba4596f7a" d="M527.25,246a2.4,2.4,0,0,1-.71-1.76,2.48,2.48,0,0,1,.71-1.79,2.38,2.38,0,0,1,1.77-.73h2.84v-4.92a17,17,0,0,1,.84-5.4,13.6,13.6,0,0,1,2.51-4.53,11.68,11.68,0,0,1,4.51-3.19,17,17,0,0,1,6.52-1.18,2.43,2.43,0,0,1,1.79.74,2.4,2.4,0,0,1,.73,1.78,2.35,2.35,0,0,1-.73,1.77,2.48,2.48,0,0,1-1.79.71q-4.66,0-6.86,2.5a10,10,0,0,0-2.19,6.8v4.92h7.59a2.35,2.35,0,0,1,1.77.73,2.48,2.48,0,0,1,.71,1.79,2.44,2.44,0,0,1-2.48,2.48h-7.59v30.79a2.58,2.58,0,0,1-2.65,2.64,2.62,2.62,0,0,1-1.9-.75,2.51,2.51,0,0,1-.78-1.89V246.67H529A2.41,2.41,0,0,1,527.25,246Z"/>
            <path class="b1c0a0da-7b15-45aa-8d32-bc6ba4596f7a" d="M567.88,268.64a10.45,10.45,0,0,1,3.9-8.61q3.9-3.12,10.64-3.13h11.74v-2.23a8.74,8.74,0,0,0-2.64-6.7,10,10,0,0,0-7.19-2.48,13.21,13.21,0,0,0-5.46,1,12.51,12.51,0,0,0-4.16,3.25,2.9,2.9,0,0,1-2.2,1.18,2.28,2.28,0,0,1-1.7-.71,2.34,2.34,0,0,1-.69-1.73,2.78,2.78,0,0,1,.4-1.42,13.38,13.38,0,0,1,5.36-4.75,18.41,18.41,0,0,1,8.45-1.79c4.8,0,8.5,1.28,11.13,3.82s3.95,6,3.95,10.32v22.87a2.42,2.42,0,0,1-.79,1.81,2.59,2.59,0,0,1-1.86.75,2.52,2.52,0,0,1-1.83-.75,2.44,2.44,0,0,1-.77-1.81v-3a10.16,10.16,0,0,1-4.77,4.43,16.1,16.1,0,0,1-7.13,1.59q-6.71,0-10.54-3.13A10.69,10.69,0,0,1,567.88,268.64Zm5.4,0a6.26,6.26,0,0,0,2.36,5.2q2.36,1.88,7.11,1.87a12.17,12.17,0,0,0,8-2.8,9.62,9.62,0,0,0,3.37-7.84v-3.49H582.42a11.17,11.17,0,0,0-6.68,1.78A6.11,6.11,0,0,0,573.28,268.64Z"/>
            <path class="b1c0a0da-7b15-45aa-8d32-bc6ba4596f7a" d="M625.92,277.46v-33.8a2.5,2.5,0,0,1,.77-1.89,2.62,2.62,0,0,1,1.91-.75,2.59,2.59,0,0,1,1.89.75,2.56,2.56,0,0,1,.75,1.89v3.66a10.38,10.38,0,0,1,4.34-4.8,13.83,13.83,0,0,1,7.24-1.83,2.58,2.58,0,0,1,2.55,2.56,2.52,2.52,0,0,1-.75,1.83,2.4,2.4,0,0,1-1.8.77c-3.72,0-6.57,1.18-8.58,3.54s-3,5.5-3,9.42v18.65a2.56,2.56,0,0,1-.75,1.89,2.59,2.59,0,0,1-1.89.75,2.62,2.62,0,0,1-1.91-.75A2.5,2.5,0,0,1,625.92,277.46Z"/>
            <path class="b1c0a0da-7b15-45aa-8d32-bc6ba4596f7a" d="M668.23,277.46v-33.8a2.54,2.54,0,0,1,.77-1.89,2.64,2.64,0,0,1,1.91-.75,2.56,2.56,0,0,1,2.64,2.64v2.68a9.38,9.38,0,0,1,4-4.14,13.38,13.38,0,0,1,6.77-1.67,19.4,19.4,0,0,1,8.29,1.59,11,11,0,0,1,5,4.22c2.47-3.87,6.51-5.81,12.15-5.81a22.07,22.07,0,0,1,6.54.88,13.52,13.52,0,0,1,4.55,2.25,11,11,0,0,1,2.78,3.37,13.75,13.75,0,0,1,1.46,4,21.94,21.94,0,0,1,.39,4.25v22.22a2.56,2.56,0,0,1-2.64,2.64,2.62,2.62,0,0,1-1.91-.75,2.5,2.5,0,0,1-.77-1.89V256.33q0-5.35-2.34-8.22c-1.56-1.91-4.24-2.87-8.06-2.87-3.5,0-6.1.88-7.82,2.62s-2.58,4.21-2.58,7.38v22.22a2.56,2.56,0,0,1-2.64,2.64,2.62,2.62,0,0,1-1.91-.75,2.5,2.5,0,0,1-.77-1.89V256.33q0-5.4-2.24-8.24t-8-2.85q-5.52,0-7.88,3t-2.36,8.63v20.56a2.56,2.56,0,0,1-2.64,2.64,2.64,2.64,0,0,1-1.91-.75A2.54,2.54,0,0,1,668.23,277.46Z"/>
            <path class="b1c0a0da-7b15-45aa-8d32-bc6ba4596f7a" d="M749.5,268.64a10.45,10.45,0,0,1,3.9-8.61q3.9-3.12,10.64-3.13h11.75v-2.23a8.71,8.71,0,0,0-2.65-6.7,10,10,0,0,0-7.19-2.48,13.21,13.21,0,0,0-5.46,1,12.51,12.51,0,0,0-4.16,3.25,2.9,2.9,0,0,1-2.2,1.18,2.29,2.29,0,0,1-1.7-.71,2.38,2.38,0,0,1-.69-1.73,2.78,2.78,0,0,1,.4-1.42,13.38,13.38,0,0,1,5.36-4.75,18.41,18.41,0,0,1,8.45-1.79q7.2,0,11.13,3.82T781,254.67v22.87a2.42,2.42,0,0,1-.79,1.81,2.59,2.59,0,0,1-1.86.75,2.52,2.52,0,0,1-1.83-.75,2.43,2.43,0,0,1-.76-1.81v-3A10.24,10.24,0,0,1,771,279a16.07,16.07,0,0,1-7.13,1.59q-6.71,0-10.54-3.13A10.69,10.69,0,0,1,749.5,268.64Zm5.41,0a6.26,6.26,0,0,0,2.35,5.2q2.36,1.88,7.11,1.87a12.15,12.15,0,0,0,8-2.8,9.63,9.63,0,0,0,3.38-7.84v-3.49H764a11.17,11.17,0,0,0-6.68,1.78A6.1,6.1,0,0,0,754.91,268.64Z"/>
            <path class="b1c0a0da-7b15-45aa-8d32-bc6ba4596f7a" d="M809.53,275.53q-4.47-5-4.47-15t4.45-15q4.44-5,12.69-5a16.11,16.11,0,0,1,8.07,1.85,15.18,15.18,0,0,1,4.73,3.88,2.76,2.76,0,0,1,.57,1.58,2.3,2.3,0,0,1-.69,1.73,2.35,2.35,0,0,1-1.71.67,2.57,2.57,0,0,1-2-1A16.92,16.92,0,0,0,830,248a13.32,13.32,0,0,0-1.62-1.22,8,8,0,0,0-2.66-1.1,15.63,15.63,0,0,0-3.48-.36q-11.73,0-11.74,15.15t11.74,15.23a13.66,13.66,0,0,0,4.29-.67,13.2,13.2,0,0,0,3-1.28c.64-.4,1.42-.95,2.34-1.62a2.77,2.77,0,0,1,1.58-.61,2.3,2.3,0,0,1,1.71.71,2.38,2.38,0,0,1,.69,1.73,2.74,2.74,0,0,1-1.06,2.07,19.23,19.23,0,0,1-12.55,4.51Q814,280.55,809.53,275.53Z"/>
            <path class="b1c0a0da-7b15-45aa-8d32-bc6ba4596f7a" d="M858.38,260.48q0-9.56,4.51-14.75t12.64-5.2a20,20,0,0,1,5.78.79,12.43,12.43,0,0,1,4.27,2.18,16.58,16.58,0,0,1,2.88,3,12.11,12.11,0,0,1,1.81,3.54,25,25,0,0,1,.88,3.51,20.28,20.28,0,0,1,.26,3.19q0,1.22-.06,1.89a8.07,8.07,0,0,1-.35,1.6,2.37,2.37,0,0,1-1,1.39,3.72,3.72,0,0,1-1.91.44H863.79q0,6.22,3.35,9.89t9.2,3.68a14.37,14.37,0,0,0,5.52-.95,20.6,20.6,0,0,0,4.47-2.62,2.73,2.73,0,0,1,1.5-.53,2.3,2.3,0,0,1,1.71.71,2.38,2.38,0,0,1,.69,1.73,2.68,2.68,0,0,1-.89,1.9,14.75,14.75,0,0,1-2.28,1.81,19,19,0,0,1-4.36,1.89,20.41,20.41,0,0,1-6.36,1q-8.58,0-13.27-4.94T858.38,260.48Zm5.41-3.09h22.38a18.43,18.43,0,0,0-.49-4.43,13.26,13.26,0,0,0-1.6-3.8,7.57,7.57,0,0,0-3.29-2.82,12.34,12.34,0,0,0-5.26-1,10.94,10.94,0,0,0-8.35,3.2Q864.15,251.74,863.79,257.39Zm7.31-23.68,7.39-9a1.78,1.78,0,0,1,1.32-.75,2.84,2.84,0,0,1,1.85.75c1.16,1.11,1.25,2.17.24,3.17l-8,8.16a1.68,1.68,0,0,1-2.52.16A1.56,1.56,0,0,1,871.1,233.71Z"/>
            <path class="b1c0a0da-7b15-45aa-8d32-bc6ba4596f7a" d="M915.44,265.39V243.66a2.56,2.56,0,0,1,2.64-2.64,2.64,2.64,0,0,1,1.89.77,2.52,2.52,0,0,1,.79,1.87v21.73a16,16,0,0,0,.43,3.88,9.09,9.09,0,0,0,1.48,3.15,6.69,6.69,0,0,0,3.13,2.26,17,17,0,0,0,10.24,0,6.53,6.53,0,0,0,3.11-2.26,9.51,9.51,0,0,0,1.46-3.13,16,16,0,0,0,.43-3.9V243.66a2.5,2.5,0,0,1,.81-1.87,2.74,2.74,0,0,1,1.95-.77,2.49,2.49,0,0,1,1.81.75,2.56,2.56,0,0,1,.75,1.89v21.73A26.09,26.09,0,0,1,946,270a14.76,14.76,0,0,1-1.38,4.11,10.31,10.31,0,0,1-2.68,3.39,12.6,12.6,0,0,1-4.47,2.19,22.88,22.88,0,0,1-6.54.84,22.63,22.63,0,0,1-6.52-.84,12.78,12.78,0,0,1-4.47-2.19,10.42,10.42,0,0,1-2.72-3.39,14.5,14.5,0,0,1-1.4-4.11A26.09,26.09,0,0,1,915.44,265.39Z"/>
            <path class="b1c0a0da-7b15-45aa-8d32-bc6ba4596f7a" d="M970,246a2.4,2.4,0,0,1-.71-1.76,2.48,2.48,0,0,1,.71-1.79,2.38,2.38,0,0,1,1.77-.73h3.25v-8.73a2.5,2.5,0,0,1,.81-1.85,2.63,2.63,0,0,1,1.87-.8,2.65,2.65,0,0,1,2.64,2.65v8.73h5.45a2.34,2.34,0,0,1,1.76.73,2.44,2.44,0,0,1,.71,1.79,2.44,2.44,0,0,1-2.47,2.48h-5.45v23a5.82,5.82,0,0,0,1.32,4.08,4.54,4.54,0,0,0,3.52,1.44,2.63,2.63,0,0,1,1.85.71,2.46,2.46,0,0,1,0,3.54,2.63,2.63,0,0,1-1.85.71,9.71,9.71,0,0,1-7.5-2.88,10.8,10.8,0,0,1-2.66-7.6v-23h-3.25A2.41,2.41,0,0,1,970,246Z"/>
            <path class="b1c0a0da-7b15-45aa-8d32-bc6ba4596f7a" d="M1012.26,230c0-2.19,1-3.29,3.17-3.29s3.12,1.1,3.12,3.29a3.23,3.23,0,0,1-.81,2.34,3.09,3.09,0,0,1-2.31.83,2.89,2.89,0,0,1-3.17-3.17Zm.48,47.45v-33.8a2.51,2.51,0,0,1,.78-1.89,2.62,2.62,0,0,1,1.91-.75,2.58,2.58,0,0,1,2.64,2.64v33.8a2.58,2.58,0,0,1-2.64,2.64,2.62,2.62,0,0,1-1.91-.75A2.51,2.51,0,0,1,1012.74,277.46Z"/>
            <path class="b1c0a0da-7b15-45aa-8d32-bc6ba4596f7a" d="M1047.5,275.53q-4.47-5-4.47-15t4.45-15q4.45-5,12.7-5a16,16,0,0,1,8.06,1.85,15.18,15.18,0,0,1,4.73,3.88,2.76,2.76,0,0,1,.57,1.58,2.3,2.3,0,0,1-.69,1.73,2.34,2.34,0,0,1-1.7.67,2.59,2.59,0,0,1-2-1,17,17,0,0,0-1.21-1.26,14.47,14.47,0,0,0-1.63-1.22,8,8,0,0,0-2.66-1.1,15.48,15.48,0,0,0-3.47-.36q-11.75,0-11.74,15.15t11.74,15.23a15.44,15.44,0,0,0,7.29-1.95c.63-.4,1.41-.95,2.33-1.62a2.77,2.77,0,0,1,1.59-.61,2.28,2.28,0,0,1,1.7.71,2.39,2.39,0,0,1,.7,1.73,2.78,2.78,0,0,1-1.06,2.07,19.25,19.25,0,0,1-12.55,4.51Q1052,280.55,1047.5,275.53Z"/>
            <path class="b1c0a0da-7b15-45aa-8d32-bc6ba4596f7a" d="M1096.28,268.64a10.47,10.47,0,0,1,3.89-8.61c2.61-2.08,6.15-3.13,10.65-3.13h11.74v-2.23a8.74,8.74,0,0,0-2.64-6.7,10.06,10.06,0,0,0-7.19-2.48,13.23,13.23,0,0,0-5.47,1,12.61,12.61,0,0,0-4.16,3.25,2.9,2.9,0,0,1-2.19,1.18,2.3,2.3,0,0,1-1.71-.71,2.38,2.38,0,0,1-.69-1.73,2.7,2.7,0,0,1,.41-1.42,13.32,13.32,0,0,1,5.36-4.75,18.38,18.38,0,0,1,8.45-1.79q7.18,0,11.13,3.82t3.94,10.32v22.87a2.41,2.41,0,0,1-.78,1.81,2.62,2.62,0,0,1-1.86.75,2.53,2.53,0,0,1-1.84-.75,2.43,2.43,0,0,1-.76-1.81v-3a10.16,10.16,0,0,1-4.77,4.43,16.1,16.1,0,0,1-7.13,1.59q-6.71,0-10.55-3.13A10.68,10.68,0,0,1,1096.28,268.64Zm5.4,0a6.26,6.26,0,0,0,2.35,5.2q2.35,1.88,7.11,1.87a12.18,12.18,0,0,0,8-2.8,9.65,9.65,0,0,0,3.37-7.84v-3.49h-11.74a11.12,11.12,0,0,0-6.68,1.78A6.11,6.11,0,0,0,1101.68,268.64Z"/>
          </g>
        </g>
      </g>
    </g>
  </g>
</svg>
