<svg width="512" height="360" viewBox="0 0 512 360" fill="none" xmlns="http://www.w3.org/2000/svg">
<path d="M502.12 81.114L394.039 44.5868C390.116 43.2667 385.858 45.3669 384.531 49.2911C383.205 53.2153 385.311 57.4726 389.236 58.7986L496.285 94.9778L445.895 119.544C443.803 118.133 441.455 117.05 438.909 116.385L287.765 76.8837C282.96 52.1673 252.529 41.7937 233.837 59.3837C227.367 65.472 223.657 74.0575 223.657 82.9391V83.1031C223.71 93.5607 232.365 102.068 242.953 102.068H269.049C275.787 102.068 282.526 98.552 286.022 91.9326L426.973 128.771C382.436 150.484 282.456 199.228 269.712 205.442C260.715 209.827 250.692 209.539 242.288 205.442L15.7138 94.9778L245.981 17.1552C252.441 14.9711 259.558 14.9711 266.017 17.1552L355.92 47.54C359.845 48.8651 364.1 46.7619 365.427 42.8357C366.753 38.9115 364.647 34.6542 360.723 33.3282L270.821 2.94338C261.262 -0.285813 250.737 -0.285813 241.178 2.94338L9.87843 81.114C-2.4103 85.2702 -3.51936 102.29 8.16032 107.984L126.865 165.857C120.335 196.904 110.364 230.329 99.5277 259.996C95.0914 272.129 98.9136 285.626 109.036 293.582C143.293 320.507 183.77 341.306 225.255 354.676C244.75 360.957 266.488 361.199 286.74 354.676C328.238 341.3 368.718 320.493 402.957 293.582C413.117 285.595 416.887 272.092 412.466 259.996C401.858 230.987 391.752 197.344 385.129 165.86L440.967 138.637V251.524C431.423 252.255 423.877 260.236 423.877 269.964V291.821C423.877 295.069 425.287 297.986 427.517 300.018L424.731 342.142C424.187 350.372 430.73 357.366 438.981 357.366H457.956C466.202 357.366 472.749 350.375 472.205 342.142L469.419 300.018C471.65 297.986 473.06 295.07 473.06 291.821V269.963C473.06 260.235 465.512 252.254 455.969 251.523V138.474C455.969 136.169 455.606 133.936 454.958 131.816L503.838 107.985C515.503 102.297 514.429 85.2762 502.12 81.114V81.114ZM269.049 87.0673H242.953C240.636 87.0673 238.669 85.2172 238.658 83.0651V82.9391C238.658 78.1068 240.596 73.6215 244.117 70.3073C254.919 60.1417 272.62 67.4592 273.321 82.08C273.488 85.5812 271.234 87.0673 269.049 87.0673V87.0673ZM389.933 240.715C349.408 272.431 291.899 295.12 272.09 298.896C268.021 299.672 265.351 303.6 266.127 307.668C266.904 311.738 270.843 314.408 274.9 313.631C295.62 309.679 352.39 287.617 395.008 255.724C396.056 258.713 397.27 262.117 398.377 265.146C400.577 271.166 398.692 277.853 393.688 281.788C353.296 313.533 310.732 331.182 282.138 340.395C265.059 345.9 246.509 345.764 229.856 340.395C201.263 331.181 158.699 313.533 118.307 281.788C113.303 277.855 111.415 271.169 113.619 265.145C113.663 265.025 113.706 264.903 113.75 264.783C114.84 261.797 116.048 258.407 116.987 255.722C158.597 286.852 215.212 309.46 237.088 313.634C241.162 314.408 245.085 311.74 245.861 307.672C246.637 303.603 243.968 299.675 239.9 298.899C221.199 295.334 163.492 273.125 122.062 240.714C128.153 222.086 135.212 198.147 140.76 172.631L235.714 218.924C248.356 225.088 263.149 225.329 276.286 218.924L371.234 172.633C376.782 198.148 383.84 222.087 389.933 240.715V240.715ZM439.749 342.364L442.358 302.923H454.576L457.185 342.364H439.749ZM458.058 269.962V287.921H438.878V269.962C438.878 268.059 440.485 266.451 442.389 266.451H454.546C456.449 266.452 458.058 268.059 458.058 269.962V269.962Z" fill="white"/>
</svg>
