<svg width="39" height="39" viewBox="0 0 39 39" fill="none" xmlns="http://www.w3.org/2000/svg">
<path d="M32.5 6.5H6.5C4.70762 6.5 3.25 7.95762 3.25 9.75V29.25C3.25 31.0424 4.70762 32.5 6.5 32.5H32.5C34.2924 32.5 35.75 31.0424 35.75 29.25V9.75C35.75 7.95762 34.2924 6.5 32.5 6.5ZM32.5 9.75V10.5804L19.5 20.6928L6.5 10.582V9.75H32.5ZM6.5 29.25V14.6965L18.5022 24.0321C18.7868 24.2556 19.1382 24.3771 19.5 24.3771C19.8618 24.3771 20.2132 24.2556 20.4978 24.0321L32.5 14.6965L32.5033 29.25H6.5Z" fill="white"/>
</svg>
