<svg width="42" height="42" viewBox="0 0 42 42" fill="none" xmlns="http://www.w3.org/2000/svg">
<path d="M20.9982 12.9102C18.8521 12.9102 16.7939 13.7627 15.2763 15.2802C13.7588 16.7978 12.9063 18.856 12.9062 21.0022C12.9063 23.1483 13.7588 25.2065 15.2763 26.7241C16.7939 28.2416 18.8521 29.0942 20.9982 29.0942C23.1444 29.0942 25.2026 28.2416 26.7202 26.7241C28.2377 25.2065 29.0902 23.1483 29.0902 21.0022C29.0902 18.856 28.2377 16.7978 26.7202 15.2802C25.2026 13.7627 23.1444 12.9102 20.9982 12.9102V12.9102ZM20.9982 26.2574C19.604 26.2574 18.2669 25.7035 17.281 24.7177C16.2951 23.7318 15.7412 22.3947 15.7412 21.0004C15.7412 19.6062 16.2951 18.269 17.281 17.2831C18.2669 16.2973 19.604 15.7434 20.9982 15.7434C22.3925 15.7434 23.7296 16.2973 24.7155 17.2831C25.7014 18.269 26.2553 19.6062 26.2553 21.0004C26.2553 22.3947 25.7014 23.7318 24.7155 24.7177C23.7296 25.7035 22.3925 26.2574 20.9982 26.2574V26.2574Z" fill="#707070"/>
<path d="M29.4099 14.4986C30.4518 14.4986 31.2964 13.654 31.2964 12.6121C31.2964 11.5702 30.4518 10.7256 29.4099 10.7256C28.3681 10.7256 27.5234 11.5702 27.5234 12.6121C27.5234 13.654 28.3681 14.4986 29.4099 14.4986Z" fill="#707070"/>
<path d="M35.9332 10.6943C35.528 9.6481 34.9089 8.69803 34.1155 7.90489C33.322 7.11175 32.3717 6.49301 31.3254 6.08829C30.101 5.62866 28.8075 5.38014 27.4999 5.35329C25.8147 5.27979 25.2809 5.25879 21.0074 5.25879C16.7339 5.25879 16.1862 5.25879 14.5149 5.35329C13.2083 5.37876 11.9157 5.62734 10.6929 6.08829C9.64629 6.49254 8.69574 7.11111 7.90224 7.90431C7.10874 8.69752 6.48981 9.64783 6.08516 10.6943C5.62544 11.9186 5.37748 13.2123 5.35191 14.5198C5.27666 16.2033 5.25391 16.737 5.25391 21.0123C5.25391 25.2858 5.25391 25.83 5.35191 27.5048C5.37816 28.8138 5.62491 30.1053 6.08516 31.332C6.49094 32.3781 7.11047 33.3281 7.90417 34.1211C8.69786 34.9142 9.64827 35.533 10.6947 35.938C11.9152 36.4161 13.2083 36.6825 14.5184 36.7255C16.2037 36.799 16.7374 36.8218 21.0109 36.8218C25.2844 36.8218 25.8322 36.8218 27.5034 36.7255C28.8108 36.6989 30.1043 36.451 31.3289 35.9923C32.375 35.5866 33.325 34.9673 34.1184 34.174C34.9117 33.3806 35.531 32.4306 35.9367 31.3845C36.3969 30.1595 36.6437 28.868 36.6699 27.559C36.7452 25.8755 36.7679 25.3418 36.7679 21.0665C36.7679 16.7913 36.7679 16.2488 36.6699 14.574C36.6495 13.248 36.4003 11.9355 35.9332 10.6943V10.6943ZM33.8017 27.3753C33.7904 28.3838 33.6063 29.383 33.2574 30.3293C32.9946 31.0098 32.5923 31.6278 32.0763 32.1435C31.5603 32.6592 30.9421 33.0611 30.2614 33.3235C29.3256 33.6708 28.337 33.8549 27.3389 33.8678C25.6764 33.9448 25.2074 33.964 20.9444 33.964C16.6779 33.964 16.2422 33.964 14.5482 33.8678C13.5505 33.8556 12.5625 33.6715 11.6274 33.3235C10.9444 33.0628 10.3237 32.6615 9.80546 32.1457C9.28727 31.6299 8.88312 31.0111 8.61916 30.3293C8.27519 29.3931 8.0912 28.4058 8.07491 27.4085C7.99966 25.746 7.98216 25.277 7.98216 21.014C7.98216 16.7493 7.98216 16.3135 8.07491 14.6178C8.08622 13.6098 8.2703 12.6113 8.61916 11.6655C9.15291 10.2848 10.2467 9.19804 11.6274 8.66954C12.5629 8.32328 13.5507 8.13923 14.5482 8.12529C16.2124 8.05004 16.6797 8.02904 20.9444 8.02904C25.2092 8.02904 25.6467 8.02904 27.3389 8.12529C28.3371 8.1373 29.3258 8.32141 30.2614 8.66954C30.942 8.93252 31.5602 9.33489 32.0761 9.85084C32.5921 10.3668 32.9944 10.9849 33.2574 11.6655C33.6014 12.6017 33.7854 13.5891 33.8017 14.5863C33.8769 16.2505 33.8962 16.7178 33.8962 20.9825C33.8962 25.2455 33.8962 25.704 33.8209 27.377H33.8017V27.3753Z" fill="#707070"/>
</svg>
