<svg width="404" height="486" viewBox="0 0 404 486" fill="none" xmlns="http://www.w3.org/2000/svg">
<path d="M201.827 271.209C139.425 269.174 124.46 215.746 121.256 198.498C115.249 197.106 109.896 193.706 106.083 188.86C101.73 182.861 99.7105 175.482 100.403 168.103C99.9081 164.127 100.254 160.091 101.417 156.257C102.58 152.423 104.535 148.876 107.155 145.845C108.635 144.328 110.335 143.045 112.199 142.039C100.601 123.315 94.8891 101.54 95.8015 79.5337C103.025 27.9186 144.621 22.8954 157.65 22.6048C163.646 15.6307 171.141 10.103 179.576 6.43533C195.375 0.0624785 212.837 -0.910492 229.247 3.66776C261.503 12.0881 283.014 28.2368 293.219 51.6712C307.749 84.9789 295.004 123.317 287.684 140.531C290.476 141.438 293.049 142.915 295.239 144.869C298.22 147.896 300.467 151.566 301.806 155.598C303.144 159.63 303.54 163.915 302.961 168.124C303.66 175.502 301.642 182.883 297.287 188.88C293.47 193.725 288.116 197.125 282.107 198.518C278.904 215.746 263.973 269.174 201.827 271.209ZM123.761 153.103C121.307 152.988 118.907 153.843 117.077 155.483C115.811 157.256 114.909 159.264 114.423 161.388C113.937 163.513 113.878 165.713 114.247 167.861C114.276 168.322 114.26 168.786 114.199 169.244C113.823 173.216 114.849 177.193 117.098 180.488C118.501 182.055 120.203 183.326 122.104 184.227C124.005 185.127 126.067 185.639 128.168 185.732C129.75 185.919 131.219 186.646 132.327 187.791C133.435 188.935 134.114 190.427 134.25 192.015C134.478 194.588 140.615 255.371 201.841 257.378C262.727 255.371 268.892 194.588 269.12 192.001C269.259 190.416 269.939 188.927 271.047 187.786C272.155 186.644 273.622 185.919 275.202 185.732C277.304 185.64 279.366 185.128 281.267 184.228C283.168 183.327 284.87 182.056 286.272 180.488C288.532 177.177 289.558 173.179 289.171 169.189C289.114 168.744 289.098 168.295 289.123 167.847C289.497 165.629 289.413 163.357 288.877 161.173C288.34 158.988 287.362 156.936 286.003 155.144C283.841 153.552 281.152 152.849 278.489 153.179C277.208 153.406 275.89 153.268 274.684 152.78C273.479 152.292 272.435 151.474 271.673 150.42C270.911 149.367 270.462 148.119 270.376 146.822C270.291 145.524 270.572 144.229 271.189 143.084C271.445 142.6 296.789 94.4993 280.502 57.1164C272.068 37.7988 253.657 24.3138 225.767 17.0351C212.362 13.2416 198.08 13.9711 185.132 19.1108C177.765 22.2846 171.344 27.3088 166.492 33.6959C165.794 34.646 164.862 35.3999 163.787 35.8847C162.712 36.3695 161.53 36.5689 160.355 36.4634C158.563 36.3181 116.199 33.5783 109.556 80.9383C109.556 80.9383 107.64 118.612 129.462 141.444C130.413 142.438 131.046 143.693 131.28 145.049C131.514 146.405 131.339 147.799 130.777 149.055C130.258 150.343 129.345 151.433 128.167 152.168C126.99 152.903 125.609 153.244 124.224 153.144L123.761 153.103Z" fill="white"/>
<path d="M277.285 153.269C275.499 153.27 273.782 152.581 272.492 151.346C271.203 150.111 270.441 148.425 270.366 146.64C270.283 144.848 268.138 103.051 236.934 99.0313C222.661 100.844 208.169 99.7138 194.35 95.7108C180.531 91.7078 167.678 84.9166 156.584 75.756C147.763 82.3913 127.435 102.56 131.344 145.575C131.396 147.336 130.774 149.05 129.605 150.368C128.437 151.686 126.81 152.508 125.056 152.668C123.301 152.828 121.552 152.313 120.165 151.227C118.778 150.142 117.856 148.568 117.589 146.827C111.854 83.7197 152.378 61.8144 154.1 60.915C155.383 60.2457 156.843 59.9952 158.275 60.1987C159.707 60.4023 161.04 61.0496 162.085 62.0497C171.947 70.9819 183.621 77.679 196.31 81.683C208.999 85.6869 222.403 86.9032 235.605 85.2488C236.239 85.1463 236.883 85.1231 237.522 85.1796C272.698 88.8397 283.443 126.631 284.204 146.066C284.275 147.897 283.617 149.681 282.375 151.027C281.132 152.374 279.406 153.172 277.575 153.248L277.285 153.269Z" fill="white"/>
<path d="M396.345 485.162H7.65427C5.81926 485.162 4.05941 484.433 2.76186 483.136C1.46431 481.838 0.735352 480.078 0.735352 478.243V401.111C0.784807 376.733 10.5 353.369 27.7504 336.143C45.0009 318.918 68.3786 309.236 92.757 309.221H106.041C107.876 309.221 109.636 309.95 110.934 311.248C112.231 312.545 112.96 314.305 112.96 316.14C112.96 317.975 112.231 319.735 110.934 321.033C109.636 322.33 107.876 323.059 106.041 323.059H92.757C72.0475 323.07 52.1874 331.293 37.5312 345.924C22.8751 360.556 14.619 380.402 14.5732 401.111V471.325H389.426V401.111C389.403 380.418 381.172 360.579 366.539 345.946C351.907 331.314 332.068 323.083 311.374 323.059H297.135C295.3 323.059 293.54 322.33 292.243 321.033C290.945 319.735 290.216 317.975 290.216 316.14C290.216 314.305 290.945 312.545 292.243 311.248C293.54 309.95 295.3 309.221 297.135 309.221H311.374C335.734 309.256 359.087 318.948 376.312 336.174C393.537 353.399 403.229 376.751 403.264 401.111V478.243C403.264 480.078 402.535 481.838 401.238 483.136C399.94 484.433 398.18 485.162 396.345 485.162Z" fill="white"/>
<path d="M225.123 485.162C224.127 485.162 223.143 484.947 222.238 484.532C221.333 484.117 220.528 483.511 219.878 482.757C219.228 482.002 218.749 481.116 218.474 480.159C218.198 479.202 218.132 478.197 218.28 477.212L246.281 291.903C246.43 290.922 246.787 289.985 247.329 289.155C247.871 288.325 248.585 287.621 249.423 287.091C250.261 286.561 251.203 286.217 252.185 286.082C253.168 285.948 254.167 286.026 255.117 286.312L303.438 300.877C304.401 301.167 305.288 301.663 306.039 302.331C306.79 302.999 307.387 303.823 307.787 304.745C308.187 305.667 308.382 306.665 308.358 307.67C308.333 308.674 308.09 309.662 307.645 310.563L288.438 349.101L299.578 361.604C300.565 362.72 301.165 364.125 301.29 365.609C301.415 367.094 301.057 368.579 300.27 369.844L231.004 481.882C230.384 482.885 229.519 483.712 228.49 484.286C227.46 484.86 226.302 485.161 225.123 485.162ZM258.777 301.866L237.017 445.869L285.816 366.994L275.002 354.851C274.082 353.819 273.492 352.536 273.308 351.166C273.124 349.796 273.355 348.402 273.971 347.164L291.6 311.781L258.777 301.866Z" fill="white"/>
<path d="M178.081 485.162C176.901 485.163 175.741 484.862 174.711 484.288C173.68 483.714 172.814 482.886 172.193 481.883L102.907 369.865C102.12 368.6 101.762 367.115 101.886 365.63C102.011 364.146 102.612 362.741 103.599 361.625L114.738 349.122L95.5314 310.584C95.0866 309.683 94.8435 308.695 94.819 307.69C94.7944 306.686 94.9892 305.688 95.3895 304.766C95.7899 303.844 96.3863 303.02 97.1373 302.352C97.8883 301.684 98.7758 301.188 99.7381 300.898L148.06 286.333C149.009 286.049 150.008 285.971 150.989 286.106C151.971 286.241 152.912 286.585 153.749 287.115C154.586 287.645 155.3 288.349 155.841 289.178C156.383 290.008 156.74 290.944 156.888 291.924L184.903 477.233C185.048 478.214 184.98 479.216 184.704 480.169C184.428 481.121 183.95 482.004 183.303 482.756C182.656 483.508 181.855 484.112 180.954 484.527C180.053 484.942 179.073 485.159 178.081 485.162V485.162ZM117.388 366.973L166.187 445.849L144.427 301.866L111.604 311.76L129.227 347.144C129.843 348.381 130.075 349.774 129.893 351.144C129.71 352.514 129.122 353.798 128.203 354.83L117.388 366.973Z" fill="white"/>
<path d="M202.118 356.159C187.157 356.148 172.211 355.242 157.359 353.447C156.438 353.362 155.543 353.094 154.728 352.658C153.912 352.222 153.192 351.627 152.611 350.908C152.029 350.188 151.597 349.36 151.341 348.471C151.086 347.582 151.01 346.651 151.12 345.733C151.231 344.815 151.524 343.928 151.982 343.125C152.441 342.322 153.056 341.619 153.792 341.057C154.527 340.496 155.367 340.088 156.262 339.857C157.158 339.626 158.091 339.577 159.006 339.713C187.283 343.19 215.88 343.19 244.157 339.713C245.96 339.518 247.768 340.039 249.191 341.163C250.614 342.288 251.539 343.927 251.765 345.726C251.992 347.526 251.503 349.343 250.404 350.785C249.304 352.228 247.682 353.181 245.887 353.44C231.368 355.262 216.75 356.17 202.118 356.159V356.159Z" fill="white"/>
<path d="M253.138 299.853C252.061 299.849 250.999 299.593 250.038 299.107C249.078 298.62 248.243 297.916 247.603 297.05C237.321 283.15 235.46 255.599 235.287 252.506C235.181 250.675 235.807 248.877 237.026 247.507C238.246 246.137 239.96 245.307 241.791 245.2C243.617 245.114 245.404 245.747 246.77 246.963C248.135 248.178 248.971 249.88 249.097 251.704C249.519 258.983 252.079 279.843 258.721 288.824C259.48 289.852 259.94 291.07 260.049 292.343C260.158 293.617 259.912 294.895 259.339 296.037C258.766 297.179 257.888 298.141 256.801 298.814C255.715 299.487 254.464 299.847 253.186 299.853H253.138Z" fill="white"/>
<path d="M150.067 299.853C148.789 299.847 147.538 299.488 146.451 298.814C145.365 298.141 144.487 297.18 143.914 296.038C143.341 294.895 143.095 293.617 143.204 292.344C143.313 291.07 143.773 289.852 144.532 288.824C151.188 279.829 153.741 258.976 154.163 251.704C154.215 250.795 154.447 249.906 154.843 249.087C155.239 248.268 155.793 247.534 156.473 246.929C157.153 246.324 157.945 245.859 158.805 245.56C159.664 245.261 160.574 245.134 161.483 245.186C162.392 245.239 163.281 245.47 164.1 245.867C164.919 246.263 165.653 246.817 166.258 247.497C166.863 248.176 167.328 248.969 167.628 249.828C167.927 250.688 168.053 251.598 168.001 252.507C167.828 255.599 165.925 283.151 155.685 297.051C155.036 297.928 154.188 298.639 153.212 299.126C152.236 299.613 151.158 299.862 150.067 299.853Z" fill="white"/>
<path d="M341.451 388.187C339.65 388.187 337.92 387.486 336.628 386.231C335.336 384.977 334.584 383.268 334.532 381.468C333.238 336.412 316.107 322.235 315.941 322.097C314.511 320.962 313.584 319.311 313.359 317.5C313.134 315.688 313.628 313.861 314.737 312.411C315.837 310.972 317.461 310.025 319.255 309.777C321.049 309.528 322.869 309.997 324.319 311.082C325.233 311.774 346.854 328.566 348.37 381.067C348.422 382.9 347.744 384.678 346.486 386.012C345.227 387.346 343.491 388.125 341.658 388.18L341.451 388.187Z" fill="white"/>
<path d="M341.485 429.036C336.076 429.037 330.787 427.434 326.288 424.43C321.79 421.425 318.283 417.154 316.212 412.157C314.141 407.159 313.598 401.66 314.653 396.354C315.707 391.048 318.312 386.174 322.136 382.348C325.961 378.522 330.834 375.917 336.14 374.861C341.446 373.805 346.945 374.346 351.943 376.416C356.941 378.486 361.213 381.992 364.219 386.49C367.225 390.988 368.829 396.276 368.829 401.685C368.822 408.936 365.939 415.887 360.812 421.015C355.686 426.142 348.736 429.027 341.485 429.036V429.036ZM341.485 388.173C338.813 388.171 336.199 388.963 333.976 390.447C331.753 391.931 330.02 394.041 328.996 396.51C327.973 398.979 327.704 401.696 328.225 404.317C328.745 406.939 330.032 409.347 331.921 411.238C333.811 413.128 336.218 414.416 338.84 414.938C341.461 415.46 344.178 415.193 346.648 414.17C349.117 413.148 351.228 411.416 352.713 409.193C354.198 406.971 354.991 404.358 354.991 401.685C354.987 398.104 353.564 394.67 351.032 392.137C348.5 389.604 345.067 388.178 341.485 388.173V388.173Z" fill="white"/>
<path d="M43.273 443.586C42.2023 443.591 41.1452 443.348 40.1847 442.875C39.2242 442.402 38.3866 441.712 37.7378 440.86C34.3605 436.425 31.8724 431.378 30.4107 425.999C27.1988 415.52 28.2526 404.196 33.3429 394.49C38.4332 384.783 47.1487 377.478 57.5951 374.162C62.5501 372.769 67.733 372.377 72.8412 373.009C77.9494 373.641 82.8805 375.284 87.3465 377.843C95.1732 382.365 101.434 389.168 105.291 397.342C109.148 405.517 110.419 414.675 108.934 423.591C108.633 425.401 107.625 427.018 106.132 428.085C104.639 429.152 102.784 429.583 100.973 429.282C99.1631 428.981 97.5465 427.973 96.4793 426.48C95.4121 424.987 94.9816 423.132 95.2825 421.321C96.298 415.212 95.4355 408.938 92.809 403.33C90.1826 397.721 85.9159 393.041 80.5729 389.909C77.692 388.246 74.5085 387.173 71.2083 386.754C67.9082 386.335 64.5575 386.577 61.3521 387.467C54.4192 389.786 48.68 394.744 45.3797 401.267C42.0793 407.79 41.484 415.352 43.7227 422.311C44.7239 425.994 46.4298 429.448 48.7458 432.482C49.525 433.507 50.0025 434.73 50.1246 436.012C50.2467 437.294 50.0085 438.584 49.4368 439.739C48.8652 440.893 47.9828 441.864 46.8889 442.544C45.7951 443.224 44.5332 443.585 43.2453 443.586H43.273Z" fill="white"/>
<path d="M102.201 429.389C101.932 429.389 101.655 429.389 101.378 429.347L93.5804 428.427C92.6777 428.32 91.805 428.036 91.012 427.591C90.2191 427.147 89.5214 426.551 88.9589 425.836C88.3965 425.122 87.9801 424.304 87.7337 423.429C87.4873 422.554 87.4157 421.639 87.5229 420.737C87.6301 419.834 87.9141 418.961 88.3586 418.168C88.8031 417.375 89.3994 416.678 90.1136 416.115C91.5558 414.979 93.3902 414.463 95.2133 414.679L103.011 415.606C104.762 415.815 106.368 416.684 107.499 418.036C108.631 419.388 109.204 421.122 109.101 422.882C108.997 424.643 108.226 426.297 106.943 427.508C105.661 428.719 103.965 429.394 102.201 429.396V429.389Z" fill="white"/>
</svg>
