<svg width="424" height="512" viewBox="0 0 424 512" fill="none" xmlns="http://www.w3.org/2000/svg">
<path d="M397.638 53.706H334.884V52.671H348.89C359.643 52.671 368.391 43.922 368.391 33.17V19.501C368.392 8.749 359.643 0 348.89 0H228.927C224.784 0 221.427 3.358 221.427 7.5C221.427 11.642 224.784 15 228.927 15H348.89C351.329 15 353.39 17.061 353.39 19.5V33.17C353.39 35.609 351.329 37.67 348.89 37.67C342.003 37.67 76.83 37.67 75.112 37.67C72.673 37.67 70.612 35.609 70.612 33.17V19.501C70.612 17.062 72.673 15.001 75.112 15.001H193.924C198.066 15.001 201.424 11.643 201.424 7.501C201.424 3.359 198.066 0.001 193.924 0.001H75.112C64.359 0.001 55.611 8.75 55.611 19.502V33.17C55.611 43.923 64.36 52.671 75.112 52.671H89.118V53.706H26.364C11.964 53.706 0.248047 65.422 0.248047 79.822V196.305C0.248047 255.218 48.1771 303.146 107.089 303.146H138.918C147.692 309.657 157.36 315.027 167.702 319.038L151.855 392.72H93.8761C83.1231 392.72 74.375 401.469 74.375 412.221V492.498C74.375 503.251 83.1241 511.999 93.8761 511.999H330.124C340.877 511.999 349.625 503.25 349.625 492.498V469.861C349.625 465.719 346.268 462.361 342.125 462.361C337.982 462.361 334.625 465.719 334.625 469.861V492.498C334.625 494.937 332.564 496.998 330.125 496.998H93.877C91.438 496.998 89.377 494.937 89.377 492.498V412.221C89.377 409.782 91.438 407.721 93.877 407.721C103.876 407.721 320.167 407.721 330.125 407.721C332.564 407.721 334.625 409.782 334.625 412.221V434.858C334.625 439 337.982 442.358 342.125 442.358C346.268 442.358 349.625 439 349.625 434.858V412.221C349.625 401.468 340.876 392.72 330.124 392.72H272.145L256.298 319.039C266.64 315.029 276.308 309.659 285.082 303.147H316.91C375.823 303.147 423.751 255.218 423.751 196.306V79.822C423.753 65.422 412.037 53.706 397.638 53.706ZM89.119 93.011V204.421C89.118 225.934 94.6811 246.17 104.436 263.776C68.423 262.375 39.553 232.656 39.553 196.306V93.011H89.119ZM107.09 288.145C56.449 288.145 15.249 246.946 15.249 196.304V79.822C15.249 73.694 20.235 68.707 26.364 68.707H89.118V78.01H32.052C27.91 78.01 24.552 81.368 24.552 85.51V196.305C24.552 241.817 61.578 278.843 107.09 278.843H114.212C116.674 282.073 119.292 285.177 122.057 288.146H107.09V288.145ZM256.802 392.721H167.2L182.061 323.621C191.352 325.95 201.604 327.304 212.001 327.304C222.317 327.304 232.594 325.964 241.942 323.621L256.802 392.721ZM212.001 312.302C152.585 312.302 104.119 263.967 104.119 204.42C104.119 173.483 104.119 84.174 104.119 52.671H319.883C319.883 85.167 319.883 173.649 319.883 204.42C319.884 264.04 271.344 312.302 212.001 312.302ZM334.884 204.42V93.011H384.449V196.305C384.449 232.654 355.58 262.374 319.567 263.775C329.321 246.169 334.884 225.934 334.884 204.42ZM316.911 288.145H301.943C304.708 285.177 307.325 282.074 309.789 278.842H316.911C362.423 278.842 399.449 241.816 399.449 196.304V85.51C399.449 81.368 396.092 78.01 391.949 78.01H334.884V68.707H397.638C403.766 68.707 408.752 73.693 408.752 79.822V196.305H408.753C408.752 246.946 367.552 288.145 316.911 288.145Z" fill="white"/>
</svg>
