<?xml version="1.0" encoding="utf-8"?>
<!-- Generator: Adobe Illustrator 24.1.0, SVG Export Plug-In . SVG Version: 6.00 Build 0)  -->
<svg version="1.1" id="Capa_1" xmlns="http://www.w3.org/2000/svg" xmlns:xlink="http://www.w3.org/1999/xlink" x="0px" y="0px"
	 viewBox="0 0 472.3 656" style="enable-background:new 0 0 472.3 656;" xml:space="preserve">
<style type="text/css">
	.st0{fill:#22B1D4;}
</style>
<g>
	<g>
		<path class="st0" d="M463.3,318c0-14.1-1.3-28.3-3.9-42.2c-1-5.2-6-8.6-11.2-7.6c-5.2,1-8.6,6-7.6,11.2
			c2.4,12.7,3.6,25.7,3.6,38.7c0,2.6-0.1,5.2-0.2,7.7c-20.7-7-27.2-14-34.2-35.6c-1.7-5.3-6.7-8.9-12.3-8.9c0,0,0,0,0,0
			c-5.6,0-10.6,3.6-12.3,8.9c-7.2,22.3-14,29-36.2,36.2c-5.3,1.7-8.9,6.7-8.9,12.3c0,5.6,3.6,10.6,8.9,12.3
			c22.3,7.2,29,14,36.2,36.2c1.7,5.3,6.7,8.9,12.3,8.9h0c5.6,0,10.6-3.6,12.3-8.9c6.7-20.6,13-27.9,31.5-34.6
			c-9.4,55.7-41,104-85.4,135.4v-95.3c0-5.3-4.3-9.6-9.6-9.6s-9.6,4.3-9.6,9.6V500c-17.8,9.9-37.1,17.2-57.6,21.5v-51.9h25.9
			c8.8,0,16-7.2,16-16V399c0-8.8-7.2-16-16-16h-1.8v-26.6c0-9.2,3.7-18.3,10.3-24.8l28.2-28.1c10.1-10.1,15.9-24.1,15.9-38.3v-71.5
			c0-5.3-4.3-9.6-9.6-9.6s-9.6,4.3-9.6,9.6v6.9c0,4.5-3.7,8.2-8.2,8.2h-17.8c-4.5,0-8.2-3.7-8.2-8.2v-97c0-4.5,3.7-8.2,8.2-8.2h17.8
			c4.5,0,8.2,3.7,8.2,8.2v45.3c0,5.3,4.3,9.6,9.6,9.6s9.6-4.3,9.6-9.6V149c30.7,22.1,55.5,52.6,70.7,89.3c2,4.9,7.6,7.2,12.5,5.2
			c4.9-2,7.2-7.6,5.2-12.5c-17-41-45.5-75.9-82.3-100.9c-2-1.4-4.1-2.7-6.1-4v-22.3c0-15.1-12.3-27.4-27.4-27.4h-17.8
			c-3.4,0-6.6,0.6-9.5,1.7C299.4,67,289,59,276.8,59h-17.8c-3.5,0-6.9,0.7-10,1.9C245,50.6,235,43.2,223.3,43.2h-17.8
			c-15.1,0-27.4,12.3-27.4,27.4v7c-2.6-0.8-5.4-1.3-8.2-1.3H152c-15.1,0-27.4,12.3-27.4,27.4v16.4C55.6,159.1,9,233.2,9,318
			c0,81.3,43,152.8,107.4,192.9v72.7c0,5.3,4.3,9.6,9.6,9.6c5.3,0,9.6-4.3,9.6-9.6v-62c18,8.9,37.3,15.5,57.6,19.4v105.4
			c0,5.3,4.3,9.6,9.6,9.6s9.6-4.3,9.6-9.6V543.9c7.9,0.8,15.8,1.3,23.9,1.3c8.1,0,16-0.4,23.9-1.3v102.6c0,5.3,4.3,9.6,9.6,9.6
			s9.6-4.3,9.6-9.6V541c20.3-3.9,39.6-10.5,57.6-19.4v62c0,5.3,4.3,9.6,9.6,9.6s9.6-4.3,9.6-9.6v-72.7
			C420.3,470.8,463.3,399.3,463.3,318L463.3,318z M397.5,366c-6.3-13-14.4-21.1-27.4-27.4c13-6.3,21.1-14.4,27.4-27.4
			c6.3,13,14.4,21.1,27.4,27.4C411.9,344.9,403.8,353,397.5,366z M250.7,86.4c0-4.5,3.7-8.2,8.2-8.2h17.8c4.5,0,8.2,3.7,8.2,8.2
			v114.3c0,4.5-3.7,8.2-8.2,8.2l-18.4,0c1.9-4.4,3-9.2,3-14.2v-19c0-7.4-4.4-13.8-10.7-16.7V86.4z M197.2,70.6
			c0-4.5,3.7-8.2,8.2-8.2h17.8c4.5,0,8.2,3.7,8.2,8.2v86.7h-34.3L197.2,70.6z M143.8,103.7c0-4.5,3.7-8.2,8.2-8.2h17.8
			c4.5,0,8.2,3.7,8.2,8.2v53.5h-27.1c-0.6,0-1.2,0-1.8,0c-1.8,0.1-3.6,0.3-5.4,0.7V103.7z M150.9,176.4h91.3v18.3
			c0,8.8-7.2,16-16,16h-51c-4.4,0-8.2,2.9-9.3,7.2c-1.1,4.2,0.8,8.6,4.6,10.8l28.2,15.8c11.1,6.2,17.9,17.9,17.9,30.5v9.5
			c0,5.3,4.3,9.6,9.6,9.6s9.6-4.3,9.6-9.6v-9.5c0-18.2-9.2-35.1-24.2-45.1h14.6c7,0,13.4-2,18.9-5.5c4.1,2.4,8.9,3.8,13.8,3.8h17.8
			c6.8,0,13-2.5,17.8-6.6c4.8,4.1,11,6.6,17.8,6.6h17.8c2.9,0,5.6-0.4,8.2-1.3v38.4c0,9.2-3.7,18.3-10.3,24.8L300,318.1
			c-10.1,10.1-15.9,24.1-15.9,38.3v26.6h-12.2c-5.3,0-9.6,4.3-9.6,9.6c0,5.3,4.3,9.6,9.6,9.6h30v48.2h-22.7v-16.9
			c0-5.3-4.3-9.6-9.6-9.6s-9.6,4.3-9.6,9.6v16.9h-47.8v-16.9c0-5.3-4.3-9.6-9.6-9.6s-9.6,4.3-9.6,9.6v16.9h-23.6v-48.2h57.7
			c5.3,0,9.6-4.3,9.6-9.6c0-5.3-4.3-9.6-9.6-9.6h-39.9v-26.9c0-13.8-5.2-26.9-14.6-37L143.9,290c-6.5-6.6-10.1-15.3-10.1-24.6v-71.9
			C133.8,184.1,141.5,176.4,150.9,176.4L150.9,176.4z M135.5,500V392.6c0-5.3-4.3-9.6-9.6-9.6s-9.6,4.3-9.6,9.6v95.3
			c-53.3-37.7-88.2-99.8-88.2-170c0-73.7,38.5-138.5,96.5-175.5v26.1c-6.2,6.5-10,15.3-10,25v71.9c0,14.3,5.5,27.8,15.6,38
			l27.8,28.2c6.5,6.6,10.1,15.3,10.1,24.6v26.9h-1.8c-8.8,0-16,7.2-16,16v54.6c0,8.8,7.2,16,16,16h26.8v51.9
			C172.6,517.1,153.3,509.8,135.5,500L135.5,500z M236.1,526c-8.1,0-16.1-0.5-23.9-1.4v-55H260v55C252.2,525.5,244.2,526,236.1,526z
			"/>
		<path class="st0" d="M350.2,60.6c16.7,5.4,21.4,10.1,26.8,26.8c1.6,5,6.3,8.4,11.6,8.4c5.3,0,10-3.4,11.6-8.4
			c5.4-16.7,10.1-21.4,26.8-26.8c5-1.6,8.4-6.3,8.4-11.6c0-5.3-3.4-10-8.4-11.6c-16.7-5.4-21.4-10.1-26.8-26.8
			c-1.6-5-6.3-8.4-11.6-8.4c-5.3,0-10,3.4-11.6,8.4c-5.4,16.7-10.1,21.4-26.8,26.8c-5,1.6-8.4,6.3-8.4,11.6
			C341.8,54.3,345.2,59,350.2,60.6L350.2,60.6z M395.3,16.5C395.3,16.5,395.3,16.5,395.3,16.5C395.2,16.5,395.2,16.5,395.3,16.5
			C395.2,16.5,395.2,16.5,395.3,16.5z M388.6,32.3c4.2,7.3,9.4,12.5,16.7,16.7c-7.3,4.2-12.5,9.4-16.7,16.7
			c-4.2-7.3-9.4-12.5-16.7-16.7C379.2,44.8,384.4,39.6,388.6,32.3z"/>
		<path class="st0" d="M126.2,327.6c-16.7-5.4-21.4-10.1-26.8-26.8c-1.6-5-6.3-8.4-11.6-8.4c-5.3,0-10,3.4-11.6,8.4
			c-5.4,16.7-10.1,21.4-26.8,26.8c-5,1.6-8.4,6.3-8.4,11.6c0,5.3,3.4,10,8.4,11.6c16.7,5.4,21.4,10.1,26.8,26.8
			c1.6,5,6.3,8.4,11.6,8.4c5.3,0,10-3.4,11.6-8.4c5.4-16.7,10.1-21.4,26.8-26.8c5-1.6,8.4-6.3,8.4-11.6
			C134.6,333.8,131.3,329.2,126.2,327.6L126.2,327.6z M94.5,306.6C94.5,306.6,94.5,306.6,94.5,306.6
			C94.5,306.6,94.5,306.6,94.5,306.6z M87.8,355.8c-4.2-7.3-9.4-12.5-16.7-16.7c7.3-4.2,12.5-9.4,16.7-16.7
			c4.2,7.3,9.4,12.5,16.7,16.7C97.2,343.3,92,348.5,87.8,355.8z"/>
	</g>
</g>
</svg>
