<?xml version="1.0" encoding="utf-8"?>
<!-- Generator: Adobe Illustrator 24.1.0, SVG Export Plug-In . SVG Version: 6.00 Build 0)  -->
<svg version="1.1" id="_x33_0" xmlns="http://www.w3.org/2000/svg" xmlns:xlink="http://www.w3.org/1999/xlink" x="0px" y="0px"
	 viewBox="0 0 512 512" style="enable-background:new 0 0 512 512;" xml:space="preserve">
<style type="text/css">
	.st0{fill:#8E8F93;}
</style>
<g>
	<path class="st0" d="M198.5,364.1c18.1,0,32.9-14.7,32.9-32.9h-16.4c0,9.1-7.4,16.4-16.4,16.4s-16.4-7.4-16.4-16.4h-16.4
		C165.6,349.3,180.3,364.1,198.5,364.1z"/>
	<path class="st0" d="M313.5,364.1c18.1,0,32.9-14.7,32.9-32.9H330c0,9.1-7.4,16.4-16.4,16.4c-9.1,0-16.4-7.4-16.4-16.4h-16.4
		C280.7,349.3,295.4,364.1,313.5,364.1z"/>
	<path class="st0" d="M214.9,454.5h49.3c27.2,0,49.3-22.1,49.3-49.3h-16.4c0,18.1-14.7,32.9-32.9,32.9h-49.3V454.5z"/>
	<path class="st0" d="M403.9,314.8h-8.2v-16.4c0-9.1-7.4-16.4-16.4-16.4h-2.5c1.6-5.3,2.5-10.8,2.5-16.4c0-28.9-21.5-52.9-49.4-56.9
		c0-0.2,0.1-0.4,0.1-0.6c0-22.7-18.4-41.1-41.1-41.1c-9.3,0-17.8,3.2-24.7,8.4v-24.9h32.9c36.2,0,65.7-29.5,65.7-65.7V35.4h-49.3
		c-5.1,0-10.1,0.8-15,1.9c-2.9-3.6-6.1-7-9.7-10L256,0l-32.8,27.3c-3.6,3-6.8,6.4-9.7,10c-4.9-1.2-9.9-1.9-15-1.9h-49.3v49.3
		c0,36.2,29.5,65.7,65.7,65.7h32.9v24.9c-6.9-5.2-15.4-8.4-24.7-8.4c-22.7,0-41.1,18.4-41.1,41.1c0,0.2,0.1,0.4,0.1,0.6
		c-27.9,4-49.4,27.9-49.4,56.9c0,5.6,0.9,11.1,2.5,16.4h-2.5c-9.1,0-16.4,7.4-16.4,16.4v16.4h-8.2c-22.7,0-41.1,18.4-41.1,41.1
		c0,22.7,18.4,41.1,41.1,41.1h8.2v8.2c0,58.9,47.9,106.8,106.8,106.8h65.7c58.9,0,106.8-47.9,106.8-106.8v-8.2h8.2
		c22.7,0,41.1-18.4,41.1-41.1C445,333.2,426.6,314.8,403.9,314.8z M288.9,183.3c13.6,0,24.7,11.1,24.7,24.7
		c0,13.6-11.1,24.7-24.7,24.7c-2.1,0-4.2-0.3-6.2-0.8l-4.1,15.9c3.3,0.9,6.8,1.3,10.3,1.3c16.6,0,30.9-10,37.4-24.2
		c20.5,2.3,36.6,19.5,36.6,40.6c0,5.7-1.2,11.3-3.5,16.4h-13c0-18.1-14.7-32.9-32.9-32.9v16.4c9.1,0,16.4,7.4,16.4,16.4h-65.7v-74
		C264.2,194.3,275.3,183.3,288.9,183.3z M313.5,51.8h32.9v32.9c0,27.2-22.1,49.3-49.3,49.3h-9.8c11.4-9,19.7-21.2,23.6-35.1
		L335.8,74l-11.6-11.6l-11,11c-0.7-7.4-2.6-14.5-5.6-21.1C309.5,52,311.5,51.8,313.5,51.8L313.5,51.8z M233.7,40L256,21.4L278.3,40
		c12,10,18.8,24.6,18.8,40.2c0,19.9-11.1,37.9-28.9,46.8l-4,2V96.3L286.5,74l-11.6-11.6L264.2,73V51.8h-16.4v37.7l-10.6-10.6
		l-11.6,11.6l22.2,22.2v16.2l-4-2c-17.8-8.9-28.9-26.8-28.9-46.8C214.9,64.6,221.8,49.9,233.7,40L233.7,40z M165.6,84.7V51.8h32.9
		c2,0,4,0.2,5.9,0.5c-3,6.7-4.9,13.8-5.6,21.1l-11-11L176.2,74l24.8,24.8c3.9,13.9,12.2,26.1,23.6,35.1h-9.8
		C187.7,134,165.6,111.8,165.6,84.7z M149.2,265.5c0-21.1,16.1-38.4,36.6-40.6c6.5,14.2,20.7,24.2,37.4,24.2c3.5,0,6.9-0.4,10.3-1.3
		l-4.1-15.9c-2,0.5-4.1,0.8-6.2,0.8c-13.6,0-24.7-11.1-24.7-24.7c0-13.6,11.1-24.7,24.7-24.7c13.6,0,24.7,11.1,24.7,24.7v74H182
		c0-9.1,7.4-16.4,16.4-16.4V249c-18.1,0-32.9,14.7-32.9,32.9h-13C150.4,276.7,149.2,271.1,149.2,265.5L149.2,265.5z M108.1,380.5
		c-13.6,0-24.7-11.1-24.7-24.7s11.1-24.7,24.7-24.7h8.2v17.5l-11.9-7.9l-9.1,13.7l21,14v12H108.1z M379.3,405.2
		c0,49.8-40.6,90.4-90.4,90.4h-65.7c-49.8,0-90.4-40.6-90.4-90.4V298.3l246.5,0V405.2z M403.9,380.5h-8.2v-12l21-14l-9.1-13.7
		l-11.9,7.9v-17.5h8.2c13.6,0,24.7,11.1,24.7,24.7S417.5,380.5,403.9,380.5z"/>
	<path class="st0" d="M1.2,232.6h32.9V249H1.2V232.6z"/>
	<path class="st0" d="M50.5,232.6h49.3V249H50.5V232.6z"/>
	<path class="st0" d="M4.6,199.1L7.8,183l96.7,19.2l-3.2,16.1L4.6,199.1z"/>
	<path class="st0" d="M17.5,150.9l6.3-15.2l30.4,12.6l-6.3,15.2L17.5,150.9z"/>
	<path class="st0" d="M63.1,169.8l6.3-15.2l45.6,18.9l-6.3,15.2L63.1,169.8z"/>
	<path class="st0" d="M70,66.5l11.6-11.6l23.2,23.2L93.3,89.7L70,66.5z"/>
	<path class="st0" d="M104.9,101.3l11.6-11.6l34.9,34.9l-11.6,11.6L104.9,101.3z"/>
	<path class="st0" d="M4.5,282.5l96.7-19.2l3.2,16.1L7.7,298.6L4.5,282.5z"/>
	<path class="st0" d="M39.7,106.1l9.1-13.7l82,54.8l-9.1,13.7L39.7,106.1z"/>
	<path class="st0" d="M477.9,232.6h32.9V249h-32.9V232.6z"/>
	<path class="st0" d="M412.1,232.6h49.3V249h-49.3V232.6z"/>
	<path class="st0" d="M407.6,202.3l96.7-19.2l3.2,16.1l-96.7,19.2L407.6,202.3z"/>
	<path class="st0" d="M457.9,148.2l30.4-12.6l6.3,15.2l-30.4,12.6L457.9,148.2z"/>
	<path class="st0" d="M397.2,173.4l45.6-18.9l6.3,15.2l-45.6,18.9L397.2,173.4z"/>
	<path class="st0" d="M407,78.1l23.2-23.2l11.6,11.6l-23.2,23.2L407,78.1z"/>
	<path class="st0" d="M360.5,124.6l34.9-34.9l11.6,11.6l-34.9,34.9L360.5,124.6z"/>
	<path class="st0" d="M407.6,279.2l3.2-16.1l96.7,19.2l-3.2,16.1L407.6,279.2z"/>
	<path class="st0" d="M381.5,147.1l82-54.8l9.1,13.7l-82,54.8L381.5,147.1z"/>
</g>
</svg>
