<?xml version="1.0" encoding="utf-8"?>
<!-- Generator: Adobe Illustrator 24.1.0, SVG Export Plug-In . SVG Version: 6.00 Build 0)  -->
<svg version="1.1" id="Layer_1" xmlns="http://www.w3.org/2000/svg" xmlns:xlink="http://www.w3.org/1999/xlink" x="0px" y="0px"
	 viewBox="0 0 512 512" style="enable-background:new 0 0 512 512;" xml:space="preserve">
<style type="text/css">
	.st0{fill:#FFFFFF;}
</style>
<path class="st0" d="M508.2,284.4l-7.3-0.1c-1.4,0-25.3-0.2-44,9.7c0.3-4,0.6-8,0.7-12.1c12.5-3.7,40.3-14.2,49.5-35.9
	c11.5-27.1-1.2-58.9-1.7-60.2l-2.9-7l-7.2,2.4c-1.3,0.4-31.8,11-43.7,37.6c-1.6-7-3.5-13.9-5.7-20.6c10.1-7.9,32.7-27.9,35.9-51.3
	c4-29.5-16.5-56.3-17.3-57.4l-4.8-6.1l-6.3,4.5c-1.1,0.8-28.1,20.3-32.2,49.8c-0.3,2.4-0.5,4.8-0.7,7.2c-4-6.2-8.4-12.3-13-18.1
	c6.9-6.1,16.5-16.7,19.3-30.9c4.4-22.4-10.1-43.8-10.7-44.7l-4.4-6.4l-6.6,4.1c-0.9,0.6-22.4,14.1-26.7,36.6
	c-0.3,1.8-0.6,3.5-0.7,5.2c-18.6-8.9-40.1,1.2-41,1.6l-6.2,3l2,6.6c0.3,1,7.5,24.4,25.9,33.2c5.7,2.7,11.6,3.7,17.1,3.7
	c7,0,13.3-1.5,17.7-2.9l0.4,0.5l0.8-0.5c30,37.2,46.6,84.2,47.3,133.4c-0.1,2.8,0,4.8,0,5.8c0,0.1,0,0.2,0,0.3
	c-0.3,21.1-3.5,41.6-9.2,61c-2.4,7.7-4.8,14.4-6.5,18.8c-4.5,11.4-10,22.2-16.2,32.5l-29.3,37.7c-6.9,7-14.3,13.5-22.2,19.5l0,0
	c-25.8,16.3-49.9,27-50.1,27.1l-12.4,5.5l10.8,8.3c1.4,1.1,34,25.9,61.2,25.9c0.4,0,0.7,0,1.1,0c28.3-0.7,49.8-27.2,50.7-28.3
	l4.4-5.5l-4.8-5.1c-0.9-0.9-17.4-18.2-37.8-25.7c2.5-2.2,4.9-4.5,7.3-6.8c8,3.3,23.7,8.8,39.4,8.8c6.8,0,13.6-1,19.8-3.7
	c26.1-11.2,37.6-43.8,38-45.2l2.5-7.2l-7.1-2.9c-1.3-0.5-25.9-10.3-48.9-9.4c1.6-3.1,3.1-6.2,4.5-9.4c12-0.7,41.2-4.3,56.4-22.1
	c18.8-22,16-56.5,15.8-58L508.2,284.4z M437.3,140c2-14.7,12.2-26.8,19.1-33.3c4.9,8.4,11.5,23.2,9.5,38.1
	c-1.9,13.8-14.8,27.9-24.9,36.7C438.3,171,435.3,154.7,437.3,140z M466.2,226c5.7-13.5,18.6-21.9,26.8-26.1
	c2.5,9.5,5.2,25.9-0.7,39.8c-5.3,12.6-22.1,20.9-34.3,25.2C458.6,255,460.4,239.6,466.2,226z M394.3,88.7c1.7-8.8,7.7-16,12.6-20.5
	c2.8,6.3,5.8,15.7,4,24.7c-1.7,8.5-7.3,15.5-12.1,20c-0.7-1.3-1.5-2.7-2.3-4.1C394.4,103,392.9,95.7,394.3,88.7z M365.3,120.8
	c-6.6-3.1-11.4-10.3-14.4-16.1c5.5-1.4,13.3-2.3,19.9,0.8c4.6,2.2,8.3,6.3,11.1,10.5c0.8,2.1,1.7,4.1,2.5,5.8
	C378.9,123.1,371.6,123.8,365.3,120.8z M401.6,479c-6.7,6.5-19.3,16.5-33.4,16.9c-12.4,0.3-28.3-7.4-39.8-14.4
	c13-5.8,25.2-13,36.7-21.3C378.3,461.1,393,471.4,401.6,479z M467.2,402.7c-4.7,9.4-13.6,22.9-25.9,28.1c-11.8,5-29,1.2-40.8-2.9
	c7.9-9,15.1-18.7,21.5-28.9C435.2,394.7,454.9,398.9,467.2,402.7z M480.7,339.1c-8.4,9.8-24.9,14.1-37.3,15.7
	c1.7-4.7,3.3-9.4,4.7-14.2c2.2-7.2,4.3-15.2,5.6-23c7.2-11.6,26.5-15.7,39.1-16.8C492.6,310.6,490.5,327.7,480.7,339.1z"/>
<path class="st0" d="M204,472.3c-0.2-0.1-24.2-10.7-50.1-27.1l0,0c-7.9-5.9-15.3-12.4-22.2-19.5L102.3,388
	c-6.3-10.3-11.7-21.1-16.2-32.5c-1.7-4.4-4.2-11.1-6.5-18.8c-5.8-19.4-9-39.9-9.2-61c0-0.1,0-0.2,0-0.3c0-1,0.1-3,0-5.8
	c0.7-49.3,17.4-96.2,47.3-133.4l0.8,0.5l0.4-0.5c4.4,1.4,10.7,2.9,17.7,2.9c5.5,0,11.5-1,17.1-3.7c18.4-8.8,25.6-32.2,25.9-33.2
	l2-6.6l-6.2-3c-0.9-0.4-22.4-10.5-41-1.6c-0.1-1.7-0.3-3.5-0.7-5.2c-4.4-22.5-25.8-36-26.7-36.6l-6.6-4.1l-4.4,6.4
	C95.3,52.2,80.8,73.6,85.2,96c2.8,14.2,12.4,24.9,19.3,30.9c-4.7,5.8-9,11.9-13,18.1c-0.1-2.4-0.3-4.8-0.7-7.2
	c-4.1-29.5-31-49-32.2-49.8l-6.3-4.5l-4.8,6.1c-0.9,1.1-21.4,27.9-17.3,57.4c3.2,23.4,25.8,43.4,35.9,51.3
	c-2.2,6.8-4.1,13.6-5.7,20.6c-11.9-26.7-42.4-37.2-43.7-37.6l-7.2-2.4l-2.9,7C6,187.1-6.7,218.9,4.8,246c9.3,21.8,37,32.2,49.5,35.9
	c0.2,4,0.4,8.1,0.7,12.1c-18.8-9.9-42.6-9.7-44-9.7l-7.3,0.1l-0.7,7.2c-0.1,1.5-3,35.9,15.8,58c15.2,17.8,44.4,21.4,56.4,22.1
	c1.4,3.2,2.9,6.3,4.5,9.4c-23-0.9-47.6,8.8-48.9,9.4l-7.1,2.9l2.5,7.2c0.5,1.4,11.9,34,38,45.2c6.2,2.7,13,3.7,19.8,3.7
	c15.8,0,31.5-5.5,39.4-8.8c2.4,2.3,4.8,4.6,7.3,6.8c-20.4,7.5-36.9,24.8-37.8,25.7l-4.8,5.1l4.4,5.5c0.9,1.1,22.4,27.6,50.7,28.3
	c0.4,0,0.7,0,1.1,0c27.2,0,59.8-24.9,61.2-25.9l10.8-8.3L204,472.3z M46.2,144.7c-2-14.9,4.6-29.6,9.5-38.1
	c6.9,6.6,17.1,18.6,19.1,33.3c2,14.8-1,31-3.7,41.5C61,172.7,48.1,158.6,46.2,144.7z M141.2,105.5c6.6-3.1,14.3-2.2,19.8-0.8
	c-2.8,5.6-7.5,12.8-14.4,16.1c-6.3,3-13.6,2.3-19.1,1c0.8-1.7,1.7-3.7,2.5-5.8C132.9,111.7,136.6,107.6,141.2,105.5z M105.1,68.2
	c4.9,4.6,10.9,11.7,12.6,20.5c1.4,7-0.1,14.2-2.2,20c-0.9,1.4-1.7,2.8-2.4,4.1c-4.8-4.6-10.4-11.6-12.1-20
	C99.3,83.9,102.2,74.5,105.1,68.2z M19.7,239.7c-5.9-13.8-3.2-30.3-0.7-39.8c8.2,4.2,21,12.6,26.8,26.2c5.8,13.6,7.6,29,8.2,38.9
	C41.8,260.6,25,252.3,19.7,239.7z M31.3,339.1c-9.8-11.4-11.8-28.5-12.1-38.3c12.6,1.1,31.9,5.2,39.1,16.8c1.3,7.8,3.4,15.8,5.6,23
	c1.4,4.8,3,9.6,4.7,14.3C56.2,353.2,39.7,348.9,31.3,339.1z M70.8,430.8c-13-5.6-21.6-19.5-25.9-28.2c12.3-3.8,32-8,45.2-3.7
	c6.4,10.2,13.6,19.9,21.6,28.9C99.8,432,82.6,435.9,70.8,430.8z M143.8,495.8c-14.1-0.3-26.7-10.4-33.4-16.9
	c8.6-7.5,23.2-17.9,36.5-18.8c11.4,8.3,23.7,15.4,36.7,21.3C172.1,488.4,156.2,496.1,143.8,495.8z"/>
<path class="st0" d="M293.3,115.1l-37.4-19.7l-37.4,19.7l7.1-41.6L195.4,44l41.8-6.1L255.9,0l18.7,37.9l41.8,6.1l-30.2,29.5
	L293.3,115.1z M255.9,77.2l15.9,8.4l-3-17.7l12.9-12.5l-17.8-2.6l-8-16.1l-8,16.1l-17.8,2.6L243,67.8l-3,17.7L255.9,77.2z"/>
<path class="st0" d="M284.9,475.7h-57.9l-11-126.1c-10.9-3.2-18.9-13.4-18.9-25.3v-76.9l28.5-26.1l10.9,11.9l-23.2,21.3v69.7
	c0,5.6,4.6,10.2,10.2,10.2h7.4l10.9,125H270l10.8-125h7.4c5.6,0,10.2-4.6,10.2-10.2v-69.7l-23.2-21.3l10.9-11.9l28.5,26.1v76.9
	c0,12-8,22.1-18.9,25.3L284.9,475.7z"/>
<path class="st0" d="M255.8,225.1c16.9,0,30.6-13.7,30.6-30.6V171c0.6-0.5,1.2-1,1.8-1.5c5.3-5,7.9-12.3,7.9-21.5h-16.2
	c0,4.7-1,8-2.9,9.8c-4.1,3.9-26.9,2.8-29.2,2.8v16.2c1.9,0,20,0.4,22.4,0.1v17.5c0,8-6.5,14.5-14.5,14.5s-14.5-6.5-14.5-14.5v-16.3
	h-16.2v16.3C225.1,211.3,238.9,225.1,255.8,225.1z"/>
<path class="st0" d="M410.8,298.1h-16.2V282h16.2V298.1z M366.6,298.1h-16.2V282h16.2V298.1z"/>
<path class="st0" d="M172.6,298.1h-16.2V282h16.2V298.1z M128.4,298.1h-16.2V282h16.2V298.1z"/>
</svg>
